<svg xmlns="http://www.w3.org/2000/svg" width="14.003" height="30.001" viewBox="0 0 14.003 30.001">
  <g id="_020201ff" data-name="#020201ff" transform="translate(-1889.534 -1070.285)">
    <path id="Path_26" data-name="Path 26" d="M1894.149,1071.831a6.579,6.579,0,0,1,4.4-1.537c1.66-.015,3.32-.006,4.98-.005q.009,2.627,0,5.254c-1.073,0-2.146,0-3.219,0a1.483,1.483,0,0,0-1.5,1.147c-.016,1.172-.006,2.345-.005,3.516,1.574.007,3.147,0,4.721,0-.116,1.7-.326,3.383-.572,5.064-1.39.013-2.781,0-4.171.007-.012,5,.007,10-.01,15-2.064.008-4.13,0-6.194.006-.039-5,0-10-.022-15.005-1.007-.011-2.015.007-3.022-.009q.006-2.52,0-5.042c1.007-.012,2.014,0,3.02-.007.031-1.634-.03-3.27.032-4.9A5.284,5.284,0,0,1,1894.149,1071.831Z" fill="#3d58a6"/>
  </g>
</svg>
