<svg xmlns="http://www.w3.org/2000/svg" width="24.812" height="30" viewBox="0 0 24.812 30">
  <path id="Path_27" data-name="Path 27" d="M1985.139,1094.647V1091.1q0-1.128-.654-1.128a1.062,1.062,0,0,0-.745.361v5.053a1.058,1.058,0,0,0,.745.361q.654,0,.654-1.1Zm4.15-2.752h1.489v-.767q0-1.151-.745-1.151t-.744,1.151Zm-12.88-6v1.579h-1.8v9.541h-1.669v-9.541h-1.76V1085.9Zm4.534,2.842v8.278h-1.511v-.9a2.4,2.4,0,0,1-1.714,1.015.888.888,0,0,1-.948-.632,3.846,3.846,0,0,1-.135-1.218v-6.541h1.489v6.09a3.468,3.468,0,0,0,.022.587q.023.338.339.338.45,0,.947-.7v-6.316Zm5.684,2.5v3.293a5.893,5.893,0,0,1-.157,1.646,1.157,1.157,0,0,1-1.2.948,2.042,2.042,0,0,1-1.534-.925v.812h-1.511V1085.9h1.511v3.631a2.008,2.008,0,0,1,1.534-.9,1.157,1.157,0,0,1,1.2.947A6.025,6.025,0,0,1,1986.627,1091.241Zm5.662,2.909v.2a7.544,7.544,0,0,1-.045.97,2.128,2.128,0,0,1-.338.9,2.037,2.037,0,0,1-1.805.9,2.168,2.168,0,0,1-1.827-.857,3.17,3.17,0,0,1-.474-1.94v-2.91a3.3,3.3,0,0,1,.451-1.94,2.147,2.147,0,0,1,1.805-.857,2.025,2.025,0,0,1,1.759.857,3.232,3.232,0,0,1,.474,1.94v1.714h-3v1.467q0,1.149.767,1.15a.654.654,0,0,0,.677-.587c0-.015,0-.067.011-.157s.011-.215.011-.373v-.485Zm-10.173-18.586v3.519q0,1.15-.722,1.15t-.721-1.15v-3.519q0-1.173.721-1.173T1982.116,1075.564Zm12.023,16.083a28.824,28.824,0,0,0-.429-5.865,3.085,3.085,0,0,0-.97-1.658,3.04,3.04,0,0,0-1.714-.778,127.659,127.659,0,0,0-18.564,0,3.009,3.009,0,0,0-1.726.778,3.118,3.118,0,0,0-.958,1.658,28.216,28.216,0,0,0-.451,5.865,27.627,27.627,0,0,0,.451,5.864,3.171,3.171,0,0,0,.958,1.647,2.96,2.96,0,0,0,1.7.789q3.092.339,9.294.339t9.293-.339a2.958,2.958,0,0,0,1.7-.789,3.172,3.172,0,0,0,.959-1.647A27.683,27.683,0,0,0,1994.139,1091.647Zm-17.03-14.685,2.03-6.676h-1.692l-1.15,4.4-1.2-4.4h-1.759l.541,1.556.519,1.557a30.822,30.822,0,0,1,1.037,3.563v4.534h1.67v-4.534Zm6.518,1.827v-2.932a3.341,3.341,0,0,0-.473-1.962,2.1,2.1,0,0,0-1.76-.857,2.023,2.023,0,0,0-1.759.857,3.339,3.339,0,0,0-.474,1.962v2.932a3.34,3.34,0,0,0,.474,1.963,2.025,2.025,0,0,0,1.759.857,2.1,2.1,0,0,0,1.76-.857A3.218,3.218,0,0,0,1983.627,1078.789Zm4.083,2.707h1.511v-8.346h-1.511v6.384q-.5.7-.947.7-.339,0-.361-.361a3.376,3.376,0,0,1-.023-.586v-6.136h-1.511v6.609A4.217,4.217,0,0,0,1985,1081a.95.95,0,0,0,.97.609,2.516,2.516,0,0,0,1.737-1.015v.9Z" transform="translate(-1969.327 -1070.286)" fill="#3d58a6"/>
</svg>
